<svg viewBox="0 0 16 16" width="16pt" height="16pt">
<path d=" M 12.976 12.157 C 12.876 12.103 12.755 12.108 12.661 12.17 C 11.946 12.64 11.221 12.879 10.506 12.879 C 10.122 12.879 9.792 12.793 9.496 12.616 C 9.294 12.496 9.107 12.288 9.04 12.107 C 8.975 11.935 8.976 11.472 8.977 10.83 L 8.977 6.92 L 12.226 6.92 C 12.396 6.92 12.534 6.782 12.534 6.612 L 12.534 3.865 C 12.534 3.695 12.396 3.557 12.226 3.557 L 8.977 3.557 L 8.977 0.308 C 8.977 0.138 8.84 0 8.67 0 L 6.481 0 C 6.326 0 6.194 0.116 6.176 0.271 C 6.084 1.023 5.914 1.648 5.668 2.129 C 5.429 2.603 5.105 3.015 4.705 3.355 C 4.385 3.628 3.836 3.893 3.075 4.141 C 2.948 4.182 2.863 4.3 2.863 4.433 L 2.863 6.612 C 2.863 6.782 3 6.92 3.17 6.92 L 4.952 6.92 L 4.952 12.007 C 4.952 12.757 5.031 13.321 5.195 13.732 C 5.362 14.149 5.658 14.543 6.075 14.901 C 6.486 15.252 6.985 15.528 7.562 15.719 C 8.121 15.901 8.566 16 9.316 16 C 9.951 16 10.556 15.934 11.114 15.804 C 11.663 15.676 12.284 15.45 12.961 15.132 C 13.069 15.081 13.137 14.972 13.137 14.853 L 13.137 12.427 C 13.137 12.314 13.075 12.21 12.976 12.157 Z "/>
</svg>