<svg viewBox="0 0 16 16" width="16pt" height="16pt">
    <path fill="#828282" d=" M 0 11.819 L 1.346 14.147 L 1.346 14.147 C 1.618 14.677 2.163 15.04 2.783 15.04 L 2.783 15.04 L 2.783 15.04 L 11.75 15.04 L 9.89 11.819 L 0 11.819 Z "/>
    <path fill="#828282" d=" M 16 11.834 C 16 11.516 15.909 11.214 15.743 10.957 L 10.48 1.822 C 10.208 1.308 9.679 0.96 9.059 0.96 L 6.276 0.96 L 14.397 15.025 L 15.682 12.802 C 15.924 12.378 16 12.197 16 11.834 Z "/>
    <path fill="#828282" d=" M 8.575 9.52 L 4.96 3.244 L 1.331 9.52 L 8.575 9.52 Z "/>
</svg>