<?xml version="1.0" encoding="UTF-8" standalone="no"?><!-- Generator: Gravit.io --><svg xmlns="http://www.w3.org/2000/svg" xmlns:xlink="http://www.w3.org/1999/xlink" style="isolation:isolate" viewBox="0 0 2100 3000" width="2100pt" height="3000pt"><defs><clipPath id="_clipPath_HCrnU0XJDzlpTzcGp8nVuhKhJzeoLkJN"><rect width="2100" height="3000"/></clipPath></defs><g clip-path="url(#_clipPath_HCrnU0XJDzlpTzcGp8nVuhKhJzeoLkJN)"><rect width="2100" height="3000" style="fill:rgb(0,0,0)" fill-opacity="0"/><g><path d=" M 1200.043 0 L 219.09 1308 L 582.072 1539 L 1200.043 0 Z " fill="rgb(54,65,86)"/><radialGradient id="_rgradient_0" fx="0.5" fy="0.9994017857124496" cx="0.5" cy="0.5" r="0.5" gradientTransform="matrix(2638.374,0,0,2100,-269.137,900)" gradientUnits="userSpaceOnUse"><stop offset="0%" stop-opacity="1" style="stop-color:rgb(214,104,83)"/><stop offset="97.91666666666666%" stop-opacity="1" style="stop-color:rgb(54,65,86)"/></radialGradient><ellipse vector-effect="non-scaling-stroke" cx="1050.0501281676625" cy="1950.0000158691382" rx="1049.9498718322916" ry="1049.9998718261886" fill="url(#_rgradient_0)"/><g><path d=" M 1200.043 0 L 1131.046 528 L 1200.043 1137 L 1500.029 300 L 1200.043 0 Z " fill="rgb(33,45,64)"/><path d=" M 1200.043 0 L 1200.043 2100 L 150.093 2100 L 1200.043 0 Z " fill="rgb(17,21,28)"/><path d=" M 1500.029 300 L 1440.032 777 L 1500.029 1422 L 1800.014 600 L 1500.029 300 Z " fill="rgb(125,78,87)"/><path d=" M 150.093 2100 L 777.063 2100 L 450.079 2400 L 150.093 2100 Z " fill="rgb(33,45,64)"/><path d=" M 1500.029 300 L 1500.029 2400 L 450.079 2400 L 1500.029 300 Z " fill="rgb(54,65,86)"/><path d=" M 1800.014 600 L 1752.017 1086 L 1800.014 1692 L 2100 900 L 1800.014 600 Z " fill="rgb(227,178,60)"/><path d=" M 450.079 2400 L 1152.045 2400 L 750.064 2700 L 450.079 2400 Z " fill="rgb(125,78,87)"/><path d=" M 1800.014 600 L 1800.014 2700 L 750.064 2700 L 1800.014 600 Z " fill="rgb(214,104,83)"/><path d=" M 750.064 2700 L 1428.032 2700 L 1050.05 3000 L 750.064 2700 Z " fill="rgb(227,178,60)"/><path d=" M 2100 900 L 2100 3000 L 1050.05 3000 L 2100 900 Z " fill="rgb(237,235,215)"/></g><g><g clip-path="url(#_clipPath_eZG2mfmW3frR5ms1rkgBOYonjyojd2od)"><text transform="matrix(3.705,0,0,3.705,291.086,2011.618)" style="font-family:'Nunito Sans';font-weight:900;font-size:300px;font-style:normal;fill:#EDEBD7;stroke:none;">P</text></g><defs><clipPath id="_clipPath_eZG2mfmW3frR5ms1rkgBOYonjyojd2od"><rect x="0" y="0" width="264.39" height="367.06" transform="matrix(3.705,0,0,3.705,291.086,888)"/></clipPath></defs><g clip-path="url(#_clipPath_4tA4H8lUJ3mSIZaxP5y1NVQzErBHorRW)"><text transform="matrix(3.705,0,0,3.705,707.959,2589.618)" style="font-family:'Nunito Sans';font-weight:900;font-size:300px;font-style:normal;fill:#EDEBD7;stroke:none;">Y</text></g><defs><clipPath id="_clipPath_4tA4H8lUJ3mSIZaxP5y1NVQzErBHorRW"><rect x="0" y="0" width="313.391" height="321.655" transform="matrix(3.705,0,0,3.705,390.1,1466)"/></clipPath></defs></g></g></g></svg>